<?xml version="1.0" encoding="UTF-8" standalone="no"?>
<svg
   xmlns:dc="http://purl.org/dc/elements/1.1/"
   xmlns:cc="http://creativecommons.org/ns#"
   xmlns:rdf="http://www.w3.org/1999/02/22-rdf-syntax-ns#"
   xmlns:svg="http://www.w3.org/2000/svg"
   xmlns="http://www.w3.org/2000/svg"
   height="100"
   width="100"
   id="svg2"
   xml:space="preserve"
   enable-background="new 0 0 100 100"
   viewBox="0 0 100 100"
   y="0px"
   x="0px"
   version="1.1"><metadata
     id="metadata26"><rdf:RDF><cc:Work
         rdf:about=""><dc:format>image/svg+xml</dc:format><dc:type
           rdf:resource="http://purl.org/dc/dcmitype/StillImage" /><dc:title></dc:title></cc:Work></rdf:RDF></metadata><defs
     id="defs24" /><g
     transform="translate(0,-5e-4)"
     id="g4"><path
       style="fill:none"
       id="path6"
       d="m 27.096,35.688 c -7.892,0 -14.313,6.421 -14.313,14.314 0,7.892 6.421,14.312 14.313,14.312 7.893,0 14.314,-6.42 14.314,-14.312 0,-7.894 -6.421,-14.314 -14.314,-14.314 z" /><path
       style="fill:none"
       id="path8"
       d="m 72.789,35.873 c -7.79,0 -14.127,6.338 -14.127,14.128 0,7.79 6.338,14.127 14.127,14.127 7.788,0 14.125,-6.337 14.125,-14.127 0,-7.79 -6.337,-14.128 -14.125,-14.128 z" /><path
       style="fill:none"
       id="path10"
       d="m 91.547,45.43 c -0.143,0 -0.3,0.03 -0.48,0.091 -0.252,0.084 -0.526,0.065 -0.762,-0.057 -0.236,-0.121 -0.413,-0.333 -0.489,-0.588 -2.24,-7.453 -9.242,-12.657 -17.027,-12.657 -7.555,0 -14.302,4.791 -16.79,11.922 -0.171,0.49 -0.695,0.76 -1.194,0.618 -4.406,-1.269 -8.784,-0.221 -9.616,10e-4 -0.495,0.136 -1.007,-0.139 -1.176,-0.622 -2.489,-7.129 -9.235,-11.919 -16.787,-11.919 -4.283,0 -8.42,1.547 -11.65,4.355 -0.062,0.053 -0.129,0.098 -0.2,0.135 -0.79,0.734 -3.857,3.789 -5.228,8.168 -0.077,0.249 -0.252,0.457 -0.484,0.577 -0.232,0.119 -0.503,0.14 -0.751,0.061 -0.179,-0.058 -0.326,-0.085 -0.46,-0.085 -0.824,0 -1.496,0.671 -1.496,1.495 l 0,1.337 c 0,0.81 0.649,1.472 1.455,1.493 0.049,-0.004 0.086,-0.006 0.118,-0.007 0.516,0 0.947,0.404 0.975,0.924 0.758,13.533 11.924,17.109 17.721,17.109 8.614,0 15.971,-6.146 17.493,-14.613 0.002,-0.011 0.005,-0.023 0.007,-0.034 0.129,-0.718 0.215,-1.445 0.255,-2.16 0.002,-0.046 0.009,-0.092 0.017,-0.138 0.708,-3.522 2.48,-5.463 4.988,-5.463 2.596,0 4.381,1.888 5.026,5.316 0.009,0.044 0.014,0.09 0.016,0.136 0.03,0.651 0.096,1.302 0.193,1.936 0.002,0.01 0.004,0.019 0.006,0.03 1.369,8.685 8.756,14.989 17.563,14.989 9.592,0 17.395,-7.505 17.763,-17.085 0.02,-0.525 0.452,-0.941 0.977,-0.941 0.001,0 0.001,0 0.002,0 0.843,0 1.512,-0.67 1.512,-1.493 l 0,-1.337 C 93.043,46.101 92.372,45.43 91.547,45.43 Z M 27.096,66.27 c -8.971,0 -16.269,-7.298 -16.269,-16.268 0,-8.972 7.299,-16.27 16.269,-16.27 8.972,0 16.27,7.299 16.27,16.27 0,8.97 -7.299,16.268 -16.27,16.268 z m 45.693,-0.186 c -8.868,0 -16.084,-7.215 -16.084,-16.083 0,-8.869 7.216,-16.085 16.084,-16.085 8.867,0 16.081,7.216 16.081,16.085 10e-4,8.869 -7.213,16.083 -16.081,16.083 z" /><path
       id="path12"
       d="M 91.418,43.477 C 88.672,35.654 81.136,30.263 72.789,30.263 c -8.084,0 -15.335,4.942 -18.321,12.39 -3.698,-0.845 -7.233,-0.335 -8.917,0.014 -2.982,-7.454 -10.237,-12.404 -18.325,-12.404 -4.657,0 -9.161,1.648 -12.714,4.646 -0.075,0.036 -0.148,0.082 -0.214,0.139 -0.164,0.139 -3.872,3.322 -5.74,8.429 C 6.651,43.423 5.001,44.987 5,46.925 l 0,1.337 c 0,1.613 1.112,2.97 2.61,3.347 1.241,14.313 13.298,18.129 19.616,18.129 9.552,0 17.712,-6.809 19.413,-16.193 0.005,-0.02 0.009,-0.04 0.011,-0.061 0.139,-0.774 0.233,-1.556 0.279,-2.327 0.364,-1.762 1.189,-3.826 3.056,-3.826 1.58,0 2.62,1.23 3.091,3.656 0.034,0.695 0.105,1.39 0.209,2.068 0.004,0.033 0.01,0.066 0.016,0.098 1.544,9.614 9.73,16.585 19.487,16.585 10.374,0 18.861,-7.906 19.669,-18.148 C 93.921,51.19 95,49.85 95,48.262 l 0,-1.337 c 0,-1.946 -1.624,-3.52 -3.582,-3.448 z m 1.625,4.785 c 0,0.823 -0.67,1.493 -1.512,1.493 -0.001,0 -0.001,0 -0.002,0 -0.525,0 -0.957,0.416 -0.977,0.941 -0.368,9.58 -8.17,17.085 -17.763,17.085 -8.807,0 -16.194,-6.304 -17.563,-14.989 -0.002,-0.011 -0.004,-0.02 -0.006,-0.03 -0.097,-0.634 -0.163,-1.286 -0.193,-1.936 -0.002,-0.046 -0.008,-0.092 -0.016,-0.136 -0.645,-3.429 -2.43,-5.316 -5.026,-5.316 -2.508,0 -4.28,1.94 -4.988,5.463 -0.009,0.046 -0.015,0.092 -0.017,0.138 -0.04,0.715 -0.126,1.442 -0.255,2.16 -0.002,0.011 -0.005,0.023 -0.007,0.034 -1.522,8.467 -8.879,14.613 -17.493,14.613 -5.798,0 -16.964,-3.576 -17.721,-17.109 C 9.475,50.153 9.044,49.749 8.529,49.749 8.497,49.75 8.46,49.752 8.411,49.756 7.605,49.735 6.956,49.073 6.956,48.263 l 0,-1.337 c 0,-0.824 0.672,-1.495 1.496,-1.495 0.135,0 0.282,0.027 0.46,0.085 0.247,0.079 0.519,0.058 0.751,-0.061 0.232,-0.12 0.407,-0.328 0.484,-0.577 1.371,-4.379 4.438,-7.434 5.228,-8.168 0.071,-0.036 0.138,-0.081 0.2,-0.135 3.23,-2.809 7.368,-4.355 11.65,-4.355 7.552,0 14.298,4.79 16.787,11.919 0.169,0.482 0.681,0.758 1.176,0.622 0.832,-0.222 5.21,-1.27 9.616,-0.001 0.5,0.142 1.023,-0.128 1.194,-0.618 2.488,-7.131 9.235,-11.922 16.79,-11.922 7.785,0 14.787,5.205 17.027,12.657 0.076,0.254 0.253,0.466 0.489,0.588 0.236,0.122 0.51,0.141 0.762,0.057 0.18,-0.061 0.336,-0.091 0.48,-0.091 0.824,0 1.496,0.671 1.496,1.495 l 0,1.336 z" /><path
       id="path14"
       d="m 27.096,33.731 c -8.971,0 -16.269,7.299 -16.269,16.27 0,8.971 7.299,16.268 16.269,16.268 8.972,0 16.27,-7.298 16.27,-16.268 0,-8.971 -7.299,-16.27 -16.27,-16.27 z m 0,30.582 c -7.892,0 -14.313,-6.42 -14.313,-14.312 0,-7.893 6.421,-14.314 14.313,-14.314 7.893,0 14.314,6.421 14.314,14.314 0,7.892 -6.421,14.312 -14.314,14.312 z" /><path
       id="path16"
       d="m 72.789,33.916 c -8.868,0 -16.084,7.216 -16.084,16.085 0,8.868 7.216,16.083 16.084,16.083 8.867,0 16.081,-7.215 16.081,-16.083 10e-4,-8.869 -7.213,-16.085 -16.081,-16.085 z m 0,30.212 c -7.79,0 -14.127,-6.337 -14.127,-14.127 0,-7.791 6.338,-14.128 14.127,-14.128 7.788,0 14.125,6.338 14.125,14.128 0,7.79 -6.337,14.127 -14.125,14.127 z" /></g></svg>